<?xml version="1.0" encoding="utf-8"?>
<!-- Generator: Adobe Illustrator 22.0.1, SVG Export Plug-In . SVG Version: 6.00 Build 0)  -->
<svg version="1.1" id="Calque_1" xmlns="http://www.w3.org/2000/svg" xmlns:xlink="http://www.w3.org/1999/xlink" x="0px" y="0px"
	 viewBox="0 0 54 54" style="enable-background:new 0 0 54 54;" xml:space="preserve">
<style type="text/css">
	.st0{fill:none;stroke:#D99EA4;stroke-width:1.5;stroke-linecap:round;stroke-linejoin:round;stroke-miterlimit:10;}
	.st1{fill:#919191;}
</style>
<g>
	<g>
		<path class="st1" d="M24.8,16.5c-3.9,1-6.8,4.5-6.8,8.7v6c0,0.6-0.4,1-1,1c-1.1,0-2,0.9-2,2c0,1.1,0.9,2,2,2h20c1.1,0,2-0.9,2-2
			c0-1.1-0.9-2-2-2c-0.6,0-1-0.4-1-1v-6c0-4.2-2.9-7.7-6.8-8.7v-1c0-1.2-1-2.3-2.2-2.3c-1.2,0-2.2,1-2.2,2.3V16.5z M23.5,37.2h7
			c0,1.9-1.6,3.5-3.5,3.5S23.5,39.2,23.5,37.2z"/>
	</g>
</g>
</svg>
