<?xml version="1.0" encoding="utf-8"?>
<!-- Generator: Adobe Illustrator 22.0.1, SVG Export Plug-In . SVG Version: 6.00 Build 0)  -->
<svg version="1.1" id="Calque_1" xmlns="http://www.w3.org/2000/svg" xmlns:xlink="http://www.w3.org/1999/xlink" x="0px" y="0px"
	 viewBox="0 0 54 54" style="enable-background:new 0 0 54 54;" xml:space="preserve">
<style type="text/css">
	.st0{fill:#919191;}
</style>
<g>
	<path class="st0" d="M36.7,18L36.7,18c-0.2,0-0.4,0-0.5,0.1v7.2c0,0.5,0,1.1-0.1,1.6c1.5-0.9,2.7-2.4,3.2-3.9c0.5-1.6,0.3-3-0.7-4
		C38,18.3,37.4,18,36.7,18z"/>
	<path class="st0" d="M17.7,18c-0.1,0-0.3,0-0.4-0.1c0,0-0.1,0-0.1,0c-0.7,0-1.3,0.3-1.9,1c-0.9,1-1.2,2.4-0.7,4
		c0.5,1.5,1.7,3,3.2,3.9c-0.1-0.5-0.1-1.1-0.1-1.6V18z"/>
	<path class="st0" d="M27,0C12.1,0,0,12.1,0,27s12.1,27,27,27s27-12.1,27-27S41.9,0,27,0z M41.7,23.7c-1,3-3.5,5.4-6.7,6.3
		c-1.2,2.1-3.1,3.6-5.4,4.3v2.4h2.5c0.2,0,0.4,0.1,0.6,0.2l2,2c0.2,0.1,0.3,0.4,0.3,0.6c0,0,0,0.1,0,0.1l0,2.4
		c0,0.5-0.4,0.8-0.8,0.8H19.8c-0.5,0-0.8-0.4-0.8-0.8v-2.5c0-0.1,0-0.1,0-0.2c0-0.1,0-0.1,0.1-0.2c0,0,0,0,0,0
		c0-0.1,0.1-0.1,0.1-0.2l2-2.1c0.2-0.2,0.4-0.2,0.6-0.2h2.5v-2.4c-2.2-0.7-4.2-2.2-5.4-4.3c-3.2-1-5.7-3.3-6.7-6.3
		c-0.8-2.5-0.3-4.9,1.2-6.5c1.2-1.2,2.5-1.8,3.9-1.7c0.1,0,0.2,0,0.3,0v-1.7c0-0.5,0.4-0.8,0.8-0.8h16.9c0.5,0,0.8,0.4,0.8,0.8v1.7
		c0.1,0,0.2,0,0.3,0c1.4-0.1,2.7,0.5,3.9,1.7C42,18.8,42.5,21.2,41.7,23.7z"/>
</g>
</svg>
