<svg width="266" height="48" viewBox="0 0 266 48" fill="none" xmlns="http://www.w3.org/2000/svg">
<rect width="266" height="48" fill="black" fill-opacity="0"/>
<rect width="266" height="48" fill="black" fill-opacity="0"/>
<path d="M58.8758 5.12C59.5112 5.12 60.1465 4.48 60.1465 3.84V1.92C60.1465 1.28 59.7229 0.639999 58.8758 0.639999H35.5796H33.0382C32.4029 0.639999 31.7675 1.28 31.7675 1.92V21.3333H5.0828V1.92C5.0828 1.28 4.65924 0.639999 3.8121 0.639999H1.2707C0.635351 0.639999 0 1.28 0 1.92V45.8667C0 46.5067 0.635351 46.9333 1.2707 46.9333H3.8121C4.44745 46.9333 5.0828 46.2933 5.0828 45.6533V25.6H31.7675V45.6533C31.7675 46.2933 32.1911 46.9333 33.0382 46.9333H35.5796H59.0876C59.7229 46.9333 60.3583 46.2933 60.3583 45.6533V43.7333C60.3583 43.0933 59.9347 42.4533 59.0876 42.4533H36.8503V25.6H55.6991C56.3344 25.6 56.9698 25.1733 56.9698 24.32V22.4C56.9698 21.76 56.3344 21.12 55.6991 21.12H36.8503V5.12H58.8758Z" fill="white"/>
<path d="M77.0892 1.92C77.0892 1.28 77.5128 0.639999 78.3599 0.639999H80.9013C81.5367 0.639999 82.172 1.28 82.172 1.92V42.6667H101.021C101.656 42.6667 102.291 43.3067 102.291 43.9467V45.8667C102.291 46.5067 101.868 47.1467 101.021 47.1467H78.3599C77.7246 47.1467 77.0892 46.5067 77.0892 45.8667V1.92Z" fill="white"/>
<path d="M118.175 1.92C118.175 1.28 118.811 0.639999 119.446 0.639999H121.987C122.623 0.639999 123.258 1.28 123.258 1.92V45.8667C123.258 46.5067 122.623 47.1467 121.987 47.1467H119.446C118.811 47.1467 118.175 46.5067 118.175 45.8667V1.92Z" fill="white"/>
<path d="M169.639 31.36C166.462 24.1067 163.285 16.8533 160.108 9.6H159.685L150.154 31.36L148.248 35.4133L143.377 46.2933C143.166 46.72 142.954 46.9333 142.318 46.9333H139.777C138.718 46.9333 138.295 46.08 138.718 45.2267L158.626 0.64C158.626 0.426667 159.049 0 159.685 0H160.32C160.955 0 161.167 0.426667 161.379 0.64L181.287 45.2267C181.71 46.08 181.075 46.9333 180.228 46.9333H177.686C177.051 46.9333 176.627 46.5067 176.627 46.2933L171.545 35.4133L169.639 31.36Z" fill="white"/>
<path d="M194.841 40.1067C195.264 39.68 195.476 39.2533 195.9 38.8267C196.535 37.9733 197.382 37.3333 198.229 38.1867C198.653 38.6133 203.524 43.3067 209.242 43.3067C214.537 43.3067 218.137 39.8933 218.137 36.0533C218.137 31.5733 214.113 28.8 206.701 25.6C199.288 22.4 194.841 19.4133 194.841 11.7333C194.841 7.25333 198.441 0 209.03 0C215.384 0 220.255 3.41333 220.255 3.41333C220.678 3.62667 221.526 4.48 220.678 5.76C220.467 6.18667 220.255 6.61333 219.831 7.04C219.196 7.89333 218.561 8.32 217.502 7.68C217.078 7.46667 212.842 4.69333 208.819 4.69333C201.83 4.69333 199.712 9.17333 199.712 11.9467C199.712 16.4267 203.1 18.9867 208.607 21.3333C217.502 24.96 223.22 28.3733 223.22 36.0533C223.22 42.88 216.655 48 209.03 48C201.194 48 196.112 43.52 195.053 42.6667C194.629 41.8133 193.994 41.3867 194.841 40.1067Z" fill="white"/>
<path d="M248.21 5.12H236.774C236.139 5.12 235.503 4.48 235.503 3.84V1.92C235.503 1.28 235.927 0.639999 236.774 0.639999H264.729C265.365 0.639999 266 1.28 266 1.92V3.84C266 4.48 265.576 5.12 264.729 5.12H253.293V45.8667C253.293 46.5067 252.658 47.1467 252.022 47.1467H249.481C248.846 47.1467 248.21 46.5067 248.21 45.8667V5.12Z" fill="white"/>
</svg>
