<?xml version="1.0" encoding="utf-8"?>
<!-- Generator: Adobe Illustrator 22.0.1, SVG Export Plug-In . SVG Version: 6.00 Build 0)  -->
<svg version="1.1" id="Calque_1" xmlns="http://www.w3.org/2000/svg" xmlns:xlink="http://www.w3.org/1999/xlink" x="0px" y="0px"
	 viewBox="0 0 50 50" style="enable-background:new 0 0 50 50;" xml:space="preserve">
<style type="text/css">
	.st0{fill:#7cc5bc;}
</style>
<g>
	<path class="st0" d="M25,50C11.2,50,0,38.8,0,25S11.2,0,25,0s25,11.2,25,25S38.8,50,25,50z M25,3.6C13.2,3.6,3.6,13.2,3.6,25
		c0,11.8,9.6,21.4,21.4,21.4S46.4,36.8,46.4,25C46.4,13.2,36.8,3.6,25,3.6z"/>
	<path class="st0" d="M22.6,35.9h3.8v3.9h-3.8V35.9z M22.6,30.6c0-0.7,0.1-1.4,0.2-2c0.1-0.6,0.4-1.1,0.7-1.7l3.2-4.7
		c0.6-0.9,0.9-1.7,0.9-2.5c0-1.1-0.4-1.9-1-2.5c-0.7-0.6-1.4-0.9-2.2-0.9c-1,0-1.8,0.3-2.4,0.9c-0.7,0.6-1,1.7-1,3.3h-3.8v-0.8
		c0-2.1,0.7-3.8,2.1-5.2c1.4-1.4,3-2.1,4.9-2.1c1.9,0,3.6,0.7,5,1.9c1.4,1.3,2.2,3.1,2.2,5.4c0,1.6-0.4,2.9-1.1,4L27,28.5
		c-0.4,0.7-0.6,1.5-0.6,2.4v2.2h-3.8V30.6z"/>
</g>
</svg>
