<?xml version="1.0" encoding="utf-8"?>
<!-- Generator: Adobe Illustrator 22.0.1, SVG Export Plug-In . SVG Version: 6.00 Build 0)  -->
<svg version="1.1" id="Calque_1" xmlns="http://www.w3.org/2000/svg" xmlns:xlink="http://www.w3.org/1999/xlink" x="0px" y="0px"
	 viewBox="0 0 54 54" style="enable-background:new 0 0 54 54;" xml:space="preserve">
<style type="text/css">
	.st0{fill:none;stroke:#D99EA4;stroke-width:1.5;stroke-linecap:round;stroke-linejoin:round;stroke-miterlimit:10;}
	.st1{fill:#D99EA4;}
</style>
<path class="st0" d="M30.9,40.5H8.5v-4.9c0.1-1,0.7-1.8,1.6-2.3c0.8-0.4,1.5-0.7,2.3-0.9c0,0,2.5-0.7,3.7-1.3l0.1-0.1
	c0.3-0.2,0.4-0.5,0.4-0.8v-1.5c-4,0-5.1-1.7-5.1-1.7s2.3,0,2.1-6c-0.1-6,2.6-7,3.6-7.4c3-1.1,4.5,0.7,4.5,0.7c3.5-0.3,4.4,3.5,4,7.8
	c-0.4,4.3,1.9,5,1.9,5c-1.6,1.7-5.1,1.6-5.1,1.6v0.4v1.1c0,0.3,0.1,0.6,0.4,0.8l0.1,0.1c1.2,0.6,3.7,1.3,3.7,1.3
	c0.8,0.2,1.6,0.5,2.3,0.9c0.9,0.4,1.5,1.3,1.6,2.3V40.5z M33.6,40.5v-4.9c0,0,0-0.1,0-0.1c-0.1-1.6-1.1-2.9-2.4-3.7
	c0.3-0.2,0.5-0.3,0.6-0.3c0.1,0,0.1-0.1,0.1-0.2v-2.1c-0.3-0.5-0.5-1.1-0.6-1.7c-0.2,0-0.6-0.4-0.9-1.6c-0.5-1.6,0-1.9,0.4-1.8
	c-0.1-0.2-0.1-0.4-0.2-0.7c-0.2-0.7-0.2-1.4,0-2.2c0.2-0.8,0.6-1.6,1.3-2.2c0.3-0.4,0.7-0.7,1.2-1c0.3-0.2,0.7-0.4,1.1-0.6
	c0.3-0.1,0.7-0.2,1-0.2c0.9-0.1,1.8,0.1,2.6,0.5c0.5,0.3,1,0.7,1.3,1.2c0,0,2.1,0.1,1.4,4.4c0,0.2-0.1,0.5-0.2,0.7
	c0.4,0,0.9,0.2,0.4,1.8c-0.3,1.2-0.7,1.5-0.9,1.6c-0.1,0.6-0.3,1.2-0.6,1.7v2.2c0,0.1,0,0.1,0.1,0.2c2.3,1.1,4.5,2.5,6.4,4.2
	c0.5,0.4,0.8,1,0.8,1.7v3.1H33.6z"/>
</svg>
