<?xml version="1.0" encoding="utf-8"?>
<!-- Generator: Adobe Illustrator 22.0.1, SVG Export Plug-In . SVG Version: 6.00 Build 0)  -->
<svg version="1.1" id="Calque_1" xmlns="http://www.w3.org/2000/svg" xmlns:xlink="http://www.w3.org/1999/xlink" x="0px" y="0px"
	 viewBox="0 0 54 54" style="enable-background:new 0 0 54 54;" xml:space="preserve">
<style type="text/css">
	.st0{fill:none;stroke:#D99EA4;stroke-width:1.5;stroke-linecap:round;stroke-linejoin:round;stroke-miterlimit:10;}
	.st1{fill:#D99EA4;}
</style>
<path class="st0" d="M40.4,17.2c-1.2-1.2-2.5-1.8-3.9-1.7c-0.1,0-0.2,0-0.3,0v-1.7c0-0.5-0.4-0.8-0.8-0.8H18.6
	c-0.5,0-0.8,0.4-0.8,0.8v1.7c-0.1,0-0.2,0-0.3,0c-1.4-0.1-2.7,0.5-3.9,1.7c-1.6,1.6-2,4.1-1.2,6.5c1,3,3.5,5.4,6.7,6.3
	c1.2,2.1,3.1,3.6,5.4,4.3v2.4h-2.5c-0.2,0-0.4,0.1-0.6,0.2l-2,2.1c0,0-0.1,0.1-0.1,0.2c0,0,0,0,0,0c0,0.1-0.1,0.1-0.1,0.2
	c0,0,0,0.1,0,0.2v2.5c0,0.5,0.4,0.8,0.8,0.8h14.3c0.5,0,0.8-0.4,0.8-0.8l0-2.4c0,0,0-0.1,0-0.1c0-0.3-0.1-0.5-0.3-0.6l-2-2
	c-0.2-0.2-0.4-0.2-0.6-0.2h-2.5v-2.4c2.2-0.7,4.2-2.2,5.4-4.3c3.2-1,5.7-3.3,6.7-6.3C42.5,21.2,42,18.8,40.4,17.2z M14.6,22.9
	c-0.5-1.6-0.3-3,0.7-4c0.6-0.7,1.3-1,1.9-1c0,0,0.1,0,0.1,0c0.1,0,0.3,0,0.4,0.1v7.2c0,0.5,0,1.1,0.1,1.6
	C16.3,25.9,15.1,24.4,14.6,22.9z M39.3,22.9c-0.5,1.5-1.7,3-3.2,3.9c0.1-0.5,0.1-1.1,0.1-1.6V18c0.1,0,0.3,0,0.4-0.1l0.1,0
	c0.7,0,1.3,0.3,2,1C39.6,19.9,39.9,21.3,39.3,22.9z"/>
</svg>
